<svg width="20" height="20" viewBox="0 0 20 20" fill="none" xmlns="http://www.w3.org/2000/svg">
<path d="M15 6C15 6.55228 14.5523 7 14 7H6C5.44772 7 5 6.55228 5 6V6C5 5.44772 5.44772 5 6 5H14C14.5523 5 15 5.44772 15 6V6Z" fill="white" fill-opacity="0.68"/>
<path d="M5 10C5 10.5523 5.44772 11 6 11H14C14.5523 11 15 10.5523 15 10V10C15 9.44772 14.5523 9 14 9H6C5.44772 9 5 9.44772 5 10V10Z" fill="white" fill-opacity="0.68"/>
<path fill-rule="evenodd" clip-rule="evenodd" d="M1 16C0.447715 16 0 15.5523 0 15V1C0 0.447715 0.447716 0 1 0H19C19.5523 0 20 0.447715 20 1V15C20 15.5523 19.5523 16 19 16H15C14.4477 16 14 16.4477 14 17V20H12C10.1325 20 8.56394 18.7202 8.12343 16.9899C7.98717 16.4547 7.55228 16 7 16H1ZM9 14C9.55228 14 10 14.4477 10 15V16C10 17.1046 10.8954 18 12 18V15C12 14.4477 12.4477 14 13 14H17C17.5523 14 18 13.5523 18 13V3C18 2.44772 17.5523 2 17 2H3C2.44772 2 2 2.44772 2 3V13C2 13.5523 2.44772 14 3 14H9Z" fill="white" fill-opacity="0.68"/>
</svg>
