<?xml version="1.0" standalone="no"?>
<!DOCTYPE svg PUBLIC "-//W3C//DTD SVG 20010904//EN"
 "http://www.w3.org/TR/2001/REC-SVG-20010904/DTD/svg10.dtd">
<svg version="1.0" xmlns="http://www.w3.org/2000/svg"
 width="512.000000pt" height="512.000000pt" viewBox="0 0 512.000000 512.000000"
 preserveAspectRatio="xMidYMid meet">

<g transform="translate(0.000000,512.000000) scale(0.100000,-0.100000)"
fill="#ffffff" stroke="none">
<path d="M2219 4901 c-134 -43 -228 -149 -258 -289 -6 -29 -11 -101 -11 -159
0 -125 -17 -163 -84 -194 -85 -39 -120 -25 -241 91 -126 121 -176 145 -305
145 -152 0 -178 -17 -436 -277 -246 -248 -257 -267 -258 -418 0 -120 33 -188
148 -308 47 -48 90 -100 95 -116 25 -65 2 -133 -62 -180 -25 -18 -47 -22 -175
-27 -130 -5 -153 -8 -204 -31 -79 -37 -151 -107 -191 -187 l-32 -66 -3 -297
c-3 -254 -1 -307 13 -356 41 -141 148 -240 293 -271 29 -6 101 -11 160 -11 98
0 111 -2 144 -25 24 -16 42 -40 53 -69 28 -74 17 -103 -86 -214 -55 -60 -101
-122 -122 -162 -29 -59 -32 -72 -32 -160 0 -152 17 -178 277 -436 248 -246
267 -257 418 -258 120 0 188 33 308 148 48 47 100 90 116 95 65 25 132 2 180
-62 18 -25 22 -48 27 -170 7 -154 18 -197 68 -271 37 -53 79 -90 140 -121 81
-41 146 -47 436 -43 252 4 274 5 327 27 81 31 159 106 200 189 31 63 33 74 39
207 7 180 22 213 117 246 61 21 96 5 200 -93 133 -125 192 -153 322 -153 150
0 173 14 417 257 220 219 253 264 273 376 23 130 -19 238 -144 370 -96 100
-106 117 -106 169 0 53 30 104 76 130 34 20 53 23 157 23 92 0 131 4 179 21
116 39 194 113 240 227 22 55 23 69 23 352 0 252 -3 303 -17 351 -33 105 -123
199 -230 241 -42 17 -82 22 -188 26 -157 5 -190 18 -221 86 -39 85 -25 120 91
241 121 126 145 176 145 305 0 151 -13 172 -263 423 -167 168 -219 214 -268
238 -109 54 -251 48 -354 -14 -19 -12 -76 -60 -126 -108 -96 -92 -129 -108
-193 -94 -35 7 -85 46 -103 79 -7 12 -15 84 -18 168 -6 138 -8 150 -38 211
-38 77 -111 148 -190 185 l-57 27 -305 2 c-272 2 -311 1 -361 -16z m630 -239
c66 -33 74 -55 81 -220 5 -137 8 -151 37 -212 94 -200 330 -283 528 -185 27
13 91 63 140 111 50 47 100 90 113 95 34 13 79 11 110 -5 15 -8 109 -97 208
-198 241 -243 242 -248 87 -409 -125 -131 -148 -179 -148 -309 1 -132 26 -192
114 -281 92 -92 142 -110 328 -118 122 -5 146 -9 170 -27 59 -43 63 -64 63
-344 0 -223 -2 -259 -18 -289 -33 -66 -55 -74 -220 -81 -137 -5 -151 -8 -212
-36 -200 -94 -283 -332 -185 -529 14 -27 64 -90 111 -140 47 -49 90 -100 95
-113 13 -34 11 -79 -5 -110 -8 -15 -97 -109 -198 -208 -243 -241 -248 -242
-409 -87 -131 125 -179 148 -309 148 -120 -1 -187 -25 -265 -97 -104 -95 -135
-177 -135 -359 0 -104 -2 -120 -23 -150 -43 -65 -63 -69 -340 -69 -268 0 -290
4 -337 54 -23 26 -25 36 -31 169 -7 148 -17 192 -62 269 -70 120 -224 197
-370 185 -104 -9 -174 -46 -289 -155 -102 -96 -125 -108 -186 -97 -31 6 -67
36 -224 193 -256 254 -258 261 -101 424 127 133 148 178 148 313 0 91 -3 106
-31 166 -44 92 -93 142 -181 186 -74 36 -78 37 -222 43 -162 6 -185 13 -221
73 -18 30 -20 52 -20 292 0 228 2 264 18 294 33 66 55 74 220 81 133 6 153 9
210 35 158 71 254 253 223 421 -17 91 -53 151 -151 257 -95 101 -111 132 -95
194 9 40 368 399 413 414 63 21 95 5 203 -97 118 -113 177 -145 285 -152 190
-12 362 110 410 290 8 31 14 102 14 168 0 129 12 163 72 200 31 19 51 20 293
20 228 0 264 -2 294 -18z"/>
<path d="M2375 3615 c-356 -67 -652 -301 -798 -630 -47 -108 -77 -240 -84
-371 -30 -592 420 -1090 1013 -1121 508 -26 958 305 1091 802 24 89 27 118 27
265 0 147 -3 176 -27 265 -46 172 -136 336 -258 469 -105 115 -291 233 -449
284 -152 50 -365 65 -515 37z m337 -239 c167 -32 312 -109 434 -230 85 -85
144 -175 183 -276 103 -265 74 -540 -81 -771 -328 -491 -1048 -491 -1376 0
-256 382 -155 895 225 1147 186 124 404 170 615 130z"/>
</g>
</svg>
