<svg xmlns="http://www.w3.org/2000/svg" viewBox="0 0 100 100" width="100" height="100">
  <!-- Contorno do círculo central -->
  <circle cx="50" cy="50" r="12" fill="none" stroke="white" stroke-width="3"/>

  <!-- Dentes da engrenagem -->
  <g fill="none" stroke="white" stroke-width="3">
    <path d="M50,5 L54,18 Q60,18 64,22 L75,13 L82,20 L73,31 Q77,35 78,41 L91,45 L91,55 L78,59 Q77,65 73,69 L82,80 L75,87 L64,78 Q60,82 54,82 L50,95 L46,82 Q40,82 36,78 L25,87 L18,80 L27,69 Q23,65 22,59 L9,55 L9,45 L22,41 Q23,35 27,31 L18,20 L25,13 L36,22 Q40,18 46,18 Z"/>
  </g>
</svg>
