<?xml version="1.0" standalone="no"?>
<!DOCTYPE svg PUBLIC "-//W3C//DTD SVG 20010904//EN"
 "http://www.w3.org/TR/2001/REC-SVG-20010904/DTD/svg10.dtd">
<svg version="1.0" xmlns="http://www.w3.org/2000/svg"
 width="512.000000pt" height="512.000000pt" viewBox="0 0 512.000000 512.000000"
 preserveAspectRatio="xMidYMid meet">

<g transform="translate(0.000000,512.000000) scale(0.100000,-0.100000)"
fill="#ffffff" stroke="none">
<path d="M2325 4308 c-261 -26 -583 -119 -855 -245 -528 -247 -1070 -715
-1340 -1158 -92 -151 -124 -240 -124 -345 0 -72 5 -97 32 -165 61 -155 209
-371 379 -556 662 -717 1555 -1107 2354 -1029 556 55 1106 301 1613 722 39 33
129 116 200 186 347 343 553 681 532 874 -26 254 -379 716 -804 1054 -623 496
-1323 729 -1987 662z m545 -333 c361 -61 686 -195 1030 -426 282 -189 556
-445 744 -696 76 -101 156 -252 156 -294 0 -35 -70 -172 -132 -260 -313 -437
-871 -861 -1373 -1042 -269 -97 -450 -130 -725 -131 -271 -1 -414 22 -685 111
-531 174 -1112 609 -1448 1083 -56 80 -117 205 -117 240 0 30 56 151 101 218
263 389 758 798 1219 1008 255 116 460 172 750 208 74 9 389 -3 480 -19z"/>
<path d="M2375 3664 c-480 -86 -837 -446 -920 -928 -72 -419 121 -862 480
-1103 119 -80 269 -143 420 -175 77 -16 333 -16 410 0 464 99 798 433 897 897
16 77 16 333 0 410 -62 289 -227 548 -452 707 -239 169 -555 242 -835 192z
m375 -328 c208 -56 367 -170 481 -344 239 -364 132 -861 -238 -1102 -311 -204
-727 -161 -992 101 -161 159 -236 340 -236 569 0 174 36 297 125 433 120 185
307 310 525 353 85 16 257 12 335 -10z"/>
</g>
</svg>
