<svg width="50" height="50" viewBox="0 0 50 50" fill="none" xmlns="http://www.w3.org/2000/svg">
<rect x="0.5" y="0.5" width="49" height="49" rx="24.5" fill="white"/>
<rect x="0.5" y="0.5" width="49" height="49" rx="24.5" stroke="#E0E0E9"/>
<path d="M25.0001 5C13.9558 5 5 14.1808 5 25.5063C5 34.5666 10.7306 42.2532 18.6773 44.9648C19.6768 45.1546 20.0439 44.5199 20.0439 43.9783C20.0439 43.4893 20.0252 41.8738 20.0167 40.1604C14.4525 41.4008 13.2785 37.7409 13.2785 37.7409C12.3687 35.3706 11.0578 34.7405 11.0578 34.7405C9.2433 33.4677 11.1946 33.4938 11.1946 33.4938C13.203 33.6385 14.2605 35.607 14.2605 35.607C16.0443 38.742 18.9393 37.8356 20.0806 37.3118C20.26 35.9863 20.7784 35.0818 21.3503 34.5697C16.9081 34.051 12.2382 32.2927 12.2382 24.4353C12.2382 22.1966 13.0195 20.3672 14.299 18.9312C14.0913 18.4146 13.4068 16.329 14.4927 13.5044C14.4927 13.5044 16.1722 12.9532 19.9941 15.6064C21.5894 15.1519 23.3004 14.9242 25.0001 14.9165C26.6998 14.9242 28.412 15.1519 30.0104 15.6064C33.8278 12.9532 35.505 13.5044 35.505 13.5044C36.5936 16.329 35.9087 18.4146 35.701 18.9312C36.9833 20.3672 37.7593 22.1965 37.7593 24.4353C37.7593 32.3114 33.0806 34.0457 28.6271 34.5533C29.3444 35.1897 29.9836 36.4377 29.9836 38.3508C29.9836 41.0945 29.9604 43.3028 29.9604 43.9783C29.9604 44.5239 30.3204 45.1634 31.3343 44.962C39.2766 42.2474 45 34.5636 45 25.5063C45 14.1808 36.0455 5 25.0001 5Z" fill="#24292F"/>
<path d="M12.4908 34.21C12.4468 34.3118 12.2903 34.3424 12.148 34.2726C12.0029 34.2057 11.9214 34.0667 11.9684 33.9645C12.0116 33.8596 12.1681 33.8303 12.3129 33.9008C12.4583 33.9675 12.5411 34.1078 12.4908 34.21M13.4746 35.11C13.3792 35.2007 13.1927 35.1586 13.0661 35.0153C12.9353 34.8723 12.9108 34.6813 13.0076 34.5891C13.1059 34.4986 13.2868 34.5409 13.4179 34.684C13.5488 34.8286 13.5742 35.0185 13.4744 35.1102M14.1495 36.2615C14.0269 36.3489 13.8264 36.267 13.7026 36.0846C13.5801 35.9024 13.5801 35.6837 13.7053 35.596C13.8295 35.5084 14.0269 35.5872 14.1523 35.7681C14.2747 35.9536 14.2747 36.1723 14.1494 36.2617M15.2908 37.5953C15.1812 37.7191 14.9478 37.686 14.7768 37.5168C14.6021 37.3515 14.5533 37.1168 14.6632 36.9928C14.7741 36.8687 15.0089 36.9036 15.1812 37.0713C15.3548 37.2363 15.4078 37.4727 15.291 37.5953M16.7659 38.0456C16.7177 38.2061 16.4928 38.2791 16.2663 38.2109C16.0401 38.1407 15.892 37.9525 15.9377 37.7902C15.9847 37.6286 16.2106 37.5525 16.4389 37.6255C16.6647 37.6955 16.8131 37.8822 16.7661 38.0456M18.4449 38.2365C18.4505 38.4057 18.2584 38.5459 18.0206 38.549C17.7814 38.5543 17.588 38.4174 17.5855 38.2511C17.5855 38.0803 17.7732 37.9414 18.0123 37.9374C18.2501 37.9325 18.4449 38.0684 18.4449 38.2365M20.0941 38.1717C20.1226 38.3367 19.9573 38.5062 19.7212 38.5512C19.4891 38.5947 19.2742 38.4929 19.2446 38.3293C19.2157 38.1601 19.3842 37.9908 19.6158 37.9469C19.8524 37.9047 20.064 38.004 20.0941 38.1717" fill="#24292F"/>
</svg>
