<?xml version="1.0" encoding="UTF-8"?>
<svg version="1.1" viewBox="0 0 2048 933" width="906" height="413" xmlns="http://www.w3.org/2000/svg">
<path transform="translate(658,105)" d="m0 0 6 2 20 11 16 10 22 13 23 16 15 10 14 10 12 9 14 11 15 12 14 11 15 13 12 11 8 7 16 15 27 27 7 8 10 11 9 11 12 14 11 14 12 16 14 20 13 21 15 26 20 40 10 25 3 11-4-4-9-12-13-16-13-15-12-14-14-15-7-6-3-1 5 10 11 15 11 17 16 29 16 32 12 29 3 9-1 3-2-1 4 9-1 2-19-19-11-9-14-12-12-8 7 13 10 19 12 22 17 34 7 17 4 11-1 5-5-3-10-10-3 1-4-2-1 3-6-1-8-11-1-2v-9l1-6-7-11-9-9-4-2-5-5-6-3-5-2-1 6 12 14 13 17 9 11 8 14 3 9-4-2-16-15-14-11-15-11-9-6 9 10 9 12 14 14 9 11 7 7 7 11 17 26 18 27 6 5h10l12-4 7-8 20-30 10-16 8-12 9-10 9-12 6-9 2-5-12 7-14 12-12 12 2-6 10-19 9-12 8-10 11-13 4-5-5-1-1-2-5 4-2-1 2-3-8 7-13 14-6 9-9 12-10 13-12 11-4 1 2-9 16-34 11-25 10-20 12-22 9-15h-1l-9 8-13 10-14 12-9 9-8 7-3 4-2-1 1-9 3-11 10-24 13-28 12-24 15-25 11-15 4-7 1-4-7 4-15 16-7 8-12 14-10 12-8 10-10 13-1-2 7-20 12-26 15-29 21-36 8-12 13-18 12-16 10-13 12-14 11-13 12-13 11-12 31-31 8-7 10-9 28-24 13-10 18-14 19-14 18-13 35-23 19-12 27-16 13-7h3l1 50v76l-1 17 2 4v10l25-10 33-15 40-16 26-10 35-13 34-12 40-13h4l1 32 1 130 1 9 80-14 65-10 59-8 70-8h12l-3 9-20 40-4 10v5l11-2h10l5 2-3 9-10 18-10 22-8 20-6 11-3 2 23-1 18-1 1 2-64 128-10 19-18 35-8 16-20 39-17 33-11 23-16 33-6 11h-1l1-10 5-16 15-40 13-38 6-14 10-28 8-21 11-27 12-38 11-24 4-11-19 2h-7l5 1-3 2-8 1h-4l-5 8-19 38-10 19-22 44-6 13-1-4 7-20 19-50 9-23 8-24-18 1-36 5-86 14-42 8-47 10-64 16-44 12-38 11-49 16-36 13-24 9-32 13-26 11-34 16-32 16-23 13-19 11-23 14-19 13-16 12-19 14-13 11-12 12-3-1 8-16 8-12 9-11 13-16 11-12 13-12 16-15 10-9 13-10 24-16 26-17 15-9 25-14 22-12 35-17 30-13 27-11 30-12 47-16 21-7 38-10 33-11 57-15 39-9 44-8 41-9 46-7 29-5 36-6 30-4h-9l-5-2v-2l-39-3h-23l-31 3-42 6-9 1h-26l-16-5-5-1h-15l-15 4-38 10-13 5-17 8-51 19-39 12-34 11-39 12-60 21-26 11-30 13-27 13-28 13-28 15-24 13-14 8-30 18-13 10-3 1-2 4-12 11-13 10-12 11-8 8-6 1-14 10-5 4-7 9-7 4h-8l-8-5-15-12-17-13-4-3-1 3-3-2h-3l-13-10-12-11-27-21-11-8-17-10-10-9-21-12-29-16-27-14-28-13-30-14-42-17-37-13-34-12-39-12-25-8-91-24-32-10-27-9-21-5-7-1h-36l-49-7-52-7-48-4h-12l-1 2v7l1 5 8 2 45 7 57 9 28 5 39 9 29 6 47 10 58 15 25 7 41 12 19 6 20 7 17 6 27 10 27 11 22 9 24 11 19 8 19 10 29 16 17 10 25 16 27 18 14 10 17 14 30 27 16 16 11 14 15 22 7 13v4l-5-2-11-10-11-9-9-8-19-14-17-12-17-11-21-13-21-12-24-13-40-20-41-18-30-12-34-13-48-17-61-19-79-21-79-18-32-6-49-8-54-9-30-4-15-1-5-1 10 29 15 39 17 44 1 9-3-4-13-27-25-50-12-22-8-17-1-3-20-3-15-1 7 20 8 23 11 30 10 27 5 14 7 17 8 23 10 25 11 30 11 31 7 19 2 7-1 4-10-17-11-22-11-23-8-17-10-19-20-39-23-45-18-35-8-16-14-29-12-22-11-23-15-29-1-6 8-1 12 2 21 1-7-10-8-17-11-27-10-19-3-9 3-2h13l9 1 1-3-5-13-17-34-4-10v-3h10l76 9 66 9 65 10 39 7 25 6h3l2-18 1-140 1-13 9 1 43 14 43 15 51 20 32 13 48 22 9 4 2-12 1-2v-16l-1-21v-49l1-39zm1235 348m18 1v1h6v-1zm-1693 1m5 1v1h5v-1zm923 60m-173 1m172 0 1 2zm-171 1 1 2zm170 1m-169 1m168 0 1 2zm-167 1m1 1 1 2zm165 0m-1 1-2 4 3-2zm745 0v1h5v-1z" fill="#FCFCFC"/>
<path transform="translate(658,105)" d="m0 0 6 2 20 11 16 10 22 13 23 16 15 10 14 10 12 9 14 11 15 12 14 11 15 13 12 11 8 7 16 15 27 27 7 8 10 11 9 11 12 14 11 14 12 16 14 20 13 21 15 26 20 40 10 25 3 11-4-4-9-12-13-16-13-15-12-14-14-15-7-6-3-1 5 10 11 15 11 17 16 29 16 32 12 29 3 9-1 3-2-1 4 9-1 2-19-19-11-9-14-12-12-8 7 13 10 19 12 22 17 34 7 17 4 11-1 5-5-3-10-10-3 1-4-2-1 3-6-1-8-11-1-2v-9l1-6-7-11-9-9-4-2-5-5-6-3-5-2-1 6 12 14 13 17 9 11 8 14 3 9-4-2-16-15-14-11-15-11-9-6 2 4-9-6-16-15-10-9-14-12-11-9-14-12-20-15-13-10-16-11-17-12-21-14-21-13-29-17-42-24-56-28-28-13-28-12-36-15-31-12-41-15-43-14-20-6-3-2v-129l1-13 9 1 43 14 43 15 51 20 32 13 48 22 9 4 2-12 1-2v-16l-1-21v-49l1-39zm315 412m1 1 1 2zm1 2m1 1m1 1 1 2z" fill="#8B47E0"/>
<path transform="translate(1461,105)" d="m0 0h3l1 50v76l-1 17 2 4v10l25-10 33-15 40-16 26-10 35-13 34-12 40-13h4l1 32v111l-7 3-54 17-68 25-44 18-30 13-40 19-46 23-22 12-24 14-21 12-19 12-33 22-16 11-32 24-16 13-17 14-13 12-11 9-12 11-14 11-10 9-9 7h-2v-2l-12 7-14 12-12 12 2-6 10-19 9-12 8-10 11-13 4-5-5-1-1-2-5 4-2-1 2-3-8 7-13 14-6 9-9 12-10 13-12 11-4 1 2-9 16-34 11-25 10-20 12-22 9-15h-1l-9 8-13 10-14 12-9 9-8 7-3 4-2-1 1-9 3-11 10-24 13-28 12-24 15-25 11-15 4-7 1-4-7 4-15 16-7 8-12 14-10 12-8 10-10 13-1-2 7-20 12-26 15-29 21-36 8-12 13-18 12-16 10-13 12-14 11-13 12-13 11-12 31-31 8-7 10-9 28-24 13-10 18-14 19-14 18-13 35-23 19-12 27-16zm-315 411m-1 1 1 2zm-1 2m-1 1 1 2zm-1 2m-1 1-2 4 3-2z" fill="#8B47DF"/>
<path transform="translate(131,304)" d="m0 0h10l76 9 66 9 65 10 39 7 25 6h3l2-2 1 1 1 102 21 3 37 6 35 7 50 11 45 13 39 12 35 12 34 13 42 18 22 10 50 25 14 8 11 6 21 12 19 12 16 10 14 9 15 10 16 11 15 11 10 8 13 10 5 5 6 8 9 10 1 4h-2-3l-13-10-12-11-27-21-11-8-17-10-10-9-21-12-29-16-27-14-28-13-30-14-42-17-37-13-34-12-39-12-25-8-91-24-32-10-27-9-21-5-7-1h-36l-49-7-52-7-48-4h-12l-1 2v7l1 5 8 2 45 7 57 9 28 5 39 9 29 6 47 10 58 15 25 7 41 12 19 6 20 7 17 6 27 10 27 11 22 9 24 11 19 8 19 10 29 16 17 10 25 16 27 18 14 10 17 14 30 27 16 16 11 14 15 22 7 13v4l-5-2-11-10-11-9-9-8-19-14-17-12-17-11-21-13-21-12-24-13-40-20-41-18-30-12-34-13-48-17-61-19-79-21-79-18-32-6-49-8-54-9-30-4-15-1-5-1 10 29 15 39 17 44 1 9-3-4-13-27-25-50-12-22-8-17-1-3-20-3-15-1 7 20 8 23 11 30 10 27 5 14 7 17 8 23 10 25 11 30 11 31 7 19 2 7-1 4-10-17-11-22-11-23-8-17-10-19-20-39-23-45-18-35-8-16-14-29-12-22-11-23-15-29-1-6 8-1 12 2 21 1-7-10-8-17-11-27-10-19-3-9 3-2h13l9 1 1-3-5-13-17-34-4-10zm87 151m5 1v1h5v-1z" fill="#FDFDFD"/>
<path transform="translate(1980,304)" d="m0 0h12l-3 9-20 40-4 10v5l11-2h10l5 2-3 9-10 18-10 22-8 20-6 11-3 2 23-1 18-1 1 2-64 128-10 19-18 35-8 16-20 39-17 33-11 23-16 33-6 11h-1l1-10 5-16 15-40 13-38 6-14 10-28 8-21 11-27 12-38 11-24 4-11-19 2h-7l5 1-3 2-8 1h-4l-5 8-19 38-10 19-22 44-6 13-1-4 7-20 19-50 9-23 8-24-18 1-36 5-86 14-42 8-47 10-64 16-44 12-38 11-49 16-36 13-24 9-32 13-26 11-34 16-32 16-23 13-19 11-23 14-19 13-16 12-19 14-13 11-12 12-3-1 8-16 8-12 9-11 13-16 11-12 13-12 16-15 10-9 13-10 24-16 26-17 15-9 25-14 22-12 35-17 30-13 27-11 30-12 47-16 21-7 38-10 33-11 57-15 39-9 44-8 41-9 46-7 29-5 36-6 30-4h-9l-5-2v-2l-39-3h-23l-31 3-42 6-9 1h-26l-16-5-5-1h-15l-15 4-38 10-13 5-17 8-51 19-39 12-34 11-39 12-60 21-26 11-30 13-27 13-28 13-28 15-24 13-14 8-30 18-13 10-3 1-2 4-12 11-13 10-12 11-8 8-3-2h-2l2-4 14-16 11-10 11-8 18-14 16-11 14-10 19-12 17-11 21-13 15-9 29-16 33-17 25-12 36-16 31-13 37-14 43-14 52-15 27-7 41-9 48-9 35-5 6-2 1-101 37-6 52-9 58-9 59-8zm-87 149m18 1v1h6v-1zm-25 69v1h5v-1z" fill="#FCFCFC"/>
<path transform="translate(1461,105)" d="m0 0h3l1 50v76l-1 18-21 11-41 24-23 15-19 13-20 14-36 28-11 9-13 11-13 12-8 7-10 9-19 19-7 8-8 8-7 8-13 14-9 11-11 14-12 15-10 14-11 16-5 6h-2l2-5h-1l-9 8-13 10-14 12-9 9-8 7-3 4-2-1 1-9 3-11 10-24 13-28 12-24 15-25 11-15 4-7 1-4-7 4-15 16-7 8-12 14-10 12-8 10-10 13-1-2 7-20 12-26 15-29 21-36 8-12 13-18 12-16 10-13 12-14 11-13 12-13 11-12 31-31 8-7 10-9 28-24 13-10 18-14 19-14 18-13 35-23 19-12 27-16zm-315 411m-1 1 1 2zm-1 2m-1 1 1 2zm-1 2m-1 1-2 4 3-2z" fill="#8B47E0"/>
<path transform="translate(658,105)" d="m0 0 6 2 20 11 16 10 22 13 23 16 15 10 14 10 12 9 14 11 15 12 14 11 15 13 12 11 8 7 16 15 27 27 7 8 10 11 9 11 12 14 11 14 12 16 14 20 13 21 15 26 20 40 10 25 3 11-4-4-9-12-13-16-13-15-12-14-14-15-7-6-3-1 5 10 11 15 11 17 16 29 16 32 12 29 3 9-1 3-2-1 4 9-1 2-19-19-11-9-14-12-12-8h-3l-6-7-1-5-4-2-12-17-12-15-10-13-9-11-12-14-7-7-7-8-14-14-7-8-16-16-8-7-20-18-11-9-16-13-13-10-18-14-16-11-17-12-18-12-23-14-13-8-25-14-10-6-2-36v-49l1-39z" fill="#8B47E0"/>
<path transform="translate(131,304)" d="m0 0h10l76 9 66 9 65 10 39 7 25 6h3l2-2 1 1 1 102 21 3 37 6 35 7 50 11 45 13 39 12 35 12 34 13 42 18 22 10 50 25 14 8 11 6 21 12 19 12 16 10 14 9 15 10 16 11 15 11 10 8 13 10 5 5 6 8 9 10 1 4h-2-3l-13-10-12-11-27-21-11-8-17-10-10-9-21-12-29-16-27-14-28-13-30-14-42-17-37-13-34-12-39-12-25-8-91-24-32-10-27-9-21-5-7-1h-36l-49-7-52-7-48-4h-12l-1 2v7l1 5 4 3-14-1-27-4-20-2-6-4-7-11-7-15-11-27-10-19-3-9 3-2h13l9 1 1-3-5-13-17-34-4-10zm87 151m5 1v1h5v-1z" fill="#8B47E0"/>
<path transform="translate(1980,304)" d="m0 0h12l-3 9-20 40-4 10v5l11-2h10l5 2-3 9-10 18-10 22-8 20-6 11-9 4-9 2-16 1-26 1-5-2v-2l-39-3h-23l-31 3-42 6-9 1h-26l-16-5-5-1h-15l-15 4-38 10-13 5-17 8-51 19-39 12-34 11-39 12-60 21-26 11-30 13-27 13-28 13-28 15-24 13-14 8-30 18-13 10-3 1-2 4-12 11-13 10-12 11-8 8-3-2h-2l2-4 14-16 11-10 11-8 18-14 16-11 14-10 19-12 17-11 21-13 15-9 29-16 33-17 25-12 36-16 31-13 37-14 43-14 52-15 27-7 41-9 48-9 35-5 6-2 1-101 37-6 52-9 58-9 59-8z" fill="#8B47E0"/>
<path transform="translate(658,248)" d="m0 0 16 8 24 14 28 17 21 14 34 24 36 28 17 14 10 9 8 7 12 11 8 7 17 17 7 8 14 14 7 8 11 12 11 14 12 15 7 9 13 18 5 5 4 8 7 6 6 11 10 19 12 22 17 34 7 17 4 11-1 5-5-3-10-10-3 1-4-2-1 3-6-1-8-11-1-2v-9l1-6-7-11-9-9-4-2v-3h1l-38-38-8-7-15-14-11-9-15-13-16-13-19-14-16-12-19-13-21-14-19-12-26-15-18-10-27-14-29-14-28-12-5-3v-100l-1-5 2-8z" fill="#FCFCFC"/>
<path transform="translate(1462,249)" d="m0 0h3l1 3v110l-4 3-27 11-29 14-28 14-23 13-26 15-25 16-16 11-17 12-18 13-18 14-14 12-14 11-11 10-8 7-15 14-13 12-25 25-3 5-7 7-8 10-6 8-8 11-10 13-12 11-4 1 2-9 16-34 11-25 10-20 12-22 6-10 4-2 10-14 11-16 11-14 13-16 8-10 10-11 7-8 30-32 18-18 8-7 10-9 8-7 14-12 17-13 15-12 16-12 16-11 20-14 24-15 20-12 16-9z" fill="#FCFCFC"/>
<path transform="translate(1461,105)" d="m0 0h3v59l-8 5-10 6-11 6-18 10-19 12-16 10-10 7-16 11-17 12-9 7-10 8-14 11-10 8-11 9-10 9-8 7-12 11-10 9-25 25-7 8-12 12-9 11-7 8-8 10-14 18-12 13-7 7-8 7-7 8-11 12-9 11-8 9-22 28-1-2 7-20 12-26 15-29 21-36 8-12 13-18 12-16 10-13 12-14 11-13 12-13 11-12 31-31 8-7 10-9 28-24 13-10 18-14 19-14 18-13 35-23 19-12 27-16z" fill="#490DB9"/>
<path transform="translate(658,105)" d="m0 0 6 2 20 11 16 10 22 13 23 16 15 10 14 10 12 9 14 11 15 12 14 11 15 13 12 11 8 7 16 15 27 27 7 8 10 11 9 11 12 14 11 14 12 16 14 20 13 21 15 26 20 40 10 25 3 11-4-4-9-12-13-16-13-15-12-14-14-15-10-9-5-5-10-11-12-16-8-10-11-13-13-14-7-8-14-14v-2l-4-2-14-14-2-1v-2l-4-2-8-7v-2l-4-2-11-10-11-9-13-11-14-11-7-5v-2l-5-2-10-8-23-16-10-7-21-14-28-17-21-12-19-11-1-1z" fill="#490DB9"/>
<path transform="translate(1980,304)" d="m0 0h12l-3 9-20 40-5 12-4 2-29 4-43 5-64 9-40 6-49 9-23 4h-5l-1-1v-56l1-2 5-2 74-13 65-10 59-8z" fill="#490DB9"/>
<path transform="translate(131,304)" d="m0 0h10l76 9 66 9 65 10 39 7 25 6 4 2 1 5v49l-1 3-15-1-18-4-18-3-20-4-35-5-52-8-96-12-5-3-5-13-17-34-4-10z" fill="#490DB9"/>
<path transform="translate(1699,173)" d="m0 0h4v59l-5 3-29 9-36 12-24 9-20 7-52 21-24 10-33 15-10 5h-4v-35l1-24 2-3 24-10 31-14 40-16 26-10 35-13 34-12z" fill="#490DB9"/>
<path transform="translate(419,174)" d="m0 0 9 1 43 14 43 15 51 20 32 13 48 22 9 4 1 3v57h-3l-33-15-21-9-25-11-26-10-33-13-40-14-30-10-24-7-1-1z" fill="#490DB9"/>
<path transform="translate(1365,458)" d="m0 0 2 1-6 4-4 4-22 13-33 22-22 15-32 24-16 13-17 14-13 12-11 9-12 11-14 11-10 9-9 7h-2v-2l-12 7-14 12-12 12 2-6 10-19 9-12 8-10 11-13 8-7 7-8 23-23 14-10 17-11 11-7 25-15 12-7 11-6 16-8 23-12 37-18z" fill="#4A0DB9"/>
<path transform="translate(755,458)" d="m0 0 9 3 28 13 8 4 17 8 15 8 12 6 21 12 16 9 17 11 16 10 19 13 28 28 8 6 9 11 13 16 6 8 7 9 8 16 1 4-4-2-16-15-14-11-15-11-8-6-4-4-14-10-11-11-8-7-13-11-11-9-13-11-18-13-10-8-16-11-14-10-17-11-19-12-25-15-8-6z" fill="#490DB9"/>
<path transform="translate(1220,426)" d="m0 0 2 1-7 7-4 5-5 5-14 15-11 14-14 17-7 8-11 15-8 11-9 10-18 14-14 12-9 9-6 5h-2l1-5 10-16 10-14 9-10 9-11 10-11 7-8 4-2 1-3h2l2-4h2v-2h2l2-4 3-1v-2l8-7 12-11 15-14 14-12 11-9z" fill="#4A0EB9"/>
<path transform="translate(901,427)" d="m0 0 6 4 11 9 14 12 7 7 8 7 8 8 8 7 21 21 7 8 8 8 8 10 4 4 8 11 10 15 7 11 2 6-4-2-11-11-11-9-14-12-12-8h-3l-6-7-1-5-9-14-10-13-8-10-11-13-6-8-11-12-9-11-11-11z" fill="#4B0EBA"/>
<path transform="translate(248,565)" d="m0 0 3 3 10 25 11 30 9 24 8 20 11 29 2 7-1 4-10-19-8-16-11-23-10-21-8-14-13-28 1-2 3-4 1-10zm2 29m1 2 1 2zm1 2 1 6 3 7 1-3-4-10zm5 14 1 2z" fill="#8C49E0"/>
<path transform="translate(240,523)" d="m0 0h12l8 2 2 10 10 28 12 31 17 44 1 9-3-4-13-27-25-50-12-22-8-17z" fill="#5013BD"/>
<path transform="translate(1870,523)" d="m0 0h8l5 1-6 10-19 38-10 19-22 44-6 13-1-4 7-20 19-50 9-23 9-27z" fill="#5114BD"/>
<path transform="translate(1313,492)" d="m0 0 2 1-35 24-32 24-16 13-17 14-13 12-11 9-12 11-14 11-10 9-9 7h-2v-2l-6 2 5-5 13-10 16-11 13-11 13-12 8-7 14-12 9-7 13-10 11-9 14-10 17-12z" fill="#8B47E0"/>
<path transform="translate(1902,436)" d="m0 0h14l1 3-4 12-2 4-17 1-5-2 2-2 2-9 2-5z" fill="#4C10BB"/>
<path transform="translate(205,436)" d="m0 0h11l9 1 2 1 3 8 1 10-19-2-4-4-3-10z" fill="#490DB9"/>
<path transform="translate(1130,615)" d="m0 0 1 3-6 11-1 8h-2l-1 4-15 15 2-6 10-19 9-12z" fill="#8B47E0"/>
<path transform="translate(1843,642)" d="m0 0 1 3-1 8 1 3-5 12-11 21-2 4-1-2 10-29z" fill="#8F4EE1"/>
<path transform="translate(999,628)" d="m0 0 5 5 8 16 1 4-4-2-16-15-4-4 5 2 11 8-6-12z" fill="#8C48E0"/>
<path transform="translate(293,620)" d="m0 0 2 2 6 16 1 9-3-4-8-17z" fill="#8A46DF"/>
<path transform="translate(240,523)" d="m0 0h12l8 2-2 3-14-1-2 2-2-3z" fill="#904FE1"/>
<path transform="translate(1870,523)" d="m0 0h8l5 1-3 4-6-1-12 2 1-5z" fill="#9455E2"/>
<path transform="translate(1825,627)" d="m0 0h3l1 2-9 19-1-4z" fill="#8B47E0"/>
<path transform="translate(1888,566)" d="m0 0 1 3-7 14-2 1 3-10z" fill="#975AE3"/>
<path transform="translate(1892,580)" d="m0 0 2 1-5 15-2 1 1-7z" fill="#B285EA"/>
<path transform="translate(1112,645)" d="m0 0 2 1-2 4-5 6-1-2 4-8z" fill="#6B2BCD"/>
<path transform="translate(1848,628)" d="m0 0 1 4-3 7-1-3z" fill="#CFB4F1"/>
<path transform="translate(1853,615)" d="m0 0 2 1-1 5h-2l-1 2 1-6z" fill="#F5F0FB"/>
<path transform="translate(1850,623)" d="m0 0 1 3-2 2z" fill="#FDFDFD"/>
<path transform="translate(1876,574)" d="m0 0 1 4-2-1z" fill="#8B47E0"/>
<path transform="translate(1854,612)" d="m0 0 2 2-2 1z" fill="#FDFDFD"/>
<path transform="translate(1877,588)" d="m0 0v3z" fill="#FDFDFD"/>
<path transform="translate(1043,581)" d="m0 0 2 2h-2z" fill="#D7C0F3"/>
<path transform="translate(1818,648)" d="m0 0" fill="#C4A2EE"/>
<path transform="translate(1844,639)" d="m0 0" fill="#FDFDFD"/>
<path transform="translate(1855,610)" d="m0 0" fill="#FDFDFD"/>
<path transform="translate(1856,608)" d="m0 0" fill="#FDFDFD"/>
<path transform="translate(1871,582)" d="m0 0" fill="#FDFDFD"/>
<path transform="translate(242,582)" d="m0 0" fill="#8B47E0"/>
<path transform="translate(240,582)" d="m0 0" fill="#FDFDFD"/>
<path transform="translate(1872,580)" d="m0 0 2 1z" fill="#FDFDFD"/>
<path transform="translate(247,563)" d="m0 0" fill="#FDFDFD"/>
<path transform="translate(1824,694)" d="m0 0" fill="#8B47E0"/>
<path transform="translate(1133,595)" d="m0 0" fill="#FDFDFD"/>
<path transform="translate(1134,594)" d="m0 0" fill="#FDFDFD"/>
<path transform="translate(988,594)" d="m0 0" fill="#FDFDFD"/>
<path transform="translate(1135,593)" d="m0 0" fill="#8B47E0"/>
<path transform="translate(1875,592)" d="m0 0" fill="#FDFDFD"/>
<path transform="translate(1136,592)" d="m0 0" fill="#8B47E0"/>
<path transform="translate(1876,591)" d="m0 0" fill="#FDFDFD"/>
<path transform="translate(1874,589)" d="m0 0" fill="#FDFDFD"/>
<path transform="translate(1878,586)" d="m0 0" fill="#FDFDFD"/>
<path transform="translate(1876,586)" d="m0 0" fill="#FDFDFD"/>
<path transform="translate(1875,583)" d="m0 0" fill="#FDFDFD"/>
<path transform="translate(1874,579)" d="m0 0" fill="#FDFDFD"/>
<path transform="translate(1889,565)" d="m0 0" fill="#8B47E0"/>
</svg>
