<!DOCTYPE svg PUBLIC "-//W3C//DTD SVG 1.1//EN" "http://www.w3.org/Graphics/SVG/1.1/DTD/svg11.dtd">
<!-- Uploaded to: SVG Repo, www.svgrepo.com, Transformed by: SVG Repo Mixer Tools -->
<svg fill="#ffffff" width="256px" height="256px" viewBox="0 0 24.00 24.00" xmlns="http://www.w3.org/2000/svg" stroke="#ffffff" stroke-width="0.00024000000000000003">
<g id="SVGRepo_bgCarrier" stroke-width="0"/>
<g id="SVGRepo_tracerCarrier" stroke-linecap="round" stroke-linejoin="round" stroke="#ffffff" stroke-width="1.392">
<path d="m21.426 11.095-17-8A.999.999 0 0 0 3.03 4.242L4.969 12 3.03 19.758a.998.998 0 0 0 1.396 1.147l17-8a1 1 0 0 0 0-1.81zM5.481 18.197l.839-3.357L12 12 6.32 9.16l-.839-3.357L18.651 12l-13.17 6.197z"/>
</g>
<g id="SVGRepo_iconCarrier">
<path d="m21.426 11.095-17-8A.999.999 0 0 0 3.03 4.242L4.969 12 3.03 19.758a.998.998 0 0 0 1.396 1.147l17-8a1 1 0 0 0 0-1.81zM5.481 18.197l.839-3.357L12 12 6.32 9.16l-.839-3.357L18.651 12l-13.17 6.197z"/>
</g>
</svg>