<svg 
    xmlns="http://www.w3.org/2000/svg" 
    viewBox="0 0 24 24" 
    fill="none" 
    stroke="white" 
    stroke-width="2" 
    stroke-linecap="round" 
    stroke-linejoin="round" 
    width="24" 
    height="24"
>
    <path d="M12 2c.34 0 .67.18.85.5l2.62 5.32 5.87.85c.37.05.68.32.79.68.1.37-.02.77-.3 1.03l-4.24 4.13 1 5.86c.06.37-.09.75-.38.98a.995.995 0 01-1.05.07L12 18.84l-5.25 2.76c-.34.18-.75.15-1.05-.07a.995.995 0 01-.38-.98l1-5.86-4.24-4.13a.991.991 0 01-.3-1.03c.1-.37.42-.63.79-.68l5.87-.85L11.15 2.5c.18-.32.51-.5.85-.5zm0 2.47l-2.15 4.36c-.14.28-.41.48-.73.53l-4.8.7 3.47 3.38c.22.21.32.51.27.81l-.82 4.8 4.3-2.26a.982.982 0 01.92 0l4.3 2.26-.82-4.8c-.05-.3.05-.6.27-.81l3.47-3.38-4.8-.7c-.32-.05-.6-.25-.73-.53L12 4.47z"/>
</svg>
